<svg xmlns="http://www.w3.org/2000/svg" xmlns:xlink="http://www.w3.org/1999/xlink" width="80" height="80" viewBox="0 0 80 80">
  <defs>
    <clipPath id="clip-path">
      <rect id="Rectangle_699" data-name="Rectangle 699" width="50.358" height="41.951" fill="#e5bc62"/>
    </clipPath>
  </defs>
  <g id="Group_946" data-name="Group 946" transform="translate(9427 -17878)">
    <circle id="Ellipse_15" data-name="Ellipse 15" cx="40" cy="40" r="40" transform="translate(-9427 17878)" fill="#fff"/>
    <g id="Group_944" data-name="Group 944" transform="translate(-9412 17897)">
      <g id="Group_943" data-name="Group 943" clip-path="url(#clip-path)">
        <path id="Path_4290" data-name="Path 4290" d="M0,170.393V153.676a1.347,1.347,0,0,1,.143.032Q11.828,157.6,23.512,161.5a5.059,5.059,0,0,0,3.318,0q10.935-3.656,21.879-7.288c.533-.177,1.068-.351,1.615-.53.013.107.024.156.024.2,0,5.325.019,10.651-.024,15.976a5.346,5.346,0,0,1-.512,2.175,5.664,5.664,0,0,1-5.553,3.4q-19.048-.016-38.1-.005c-.213,0-.426,0-.639-.008a5.771,5.771,0,0,1-5.305-4.18c-.078-.282-.145-.568-.218-.852" transform="translate(0 -133.487)" fill="#e5bc62"/>
        <path id="Path_4291" data-name="Path 4291" d="M0,11.338c.088-.331.164-.665.266-.991A5.722,5.722,0,0,1,5.819,6.3c3.442-.014,6.884,0,10.325,0H16.8c0-.766-.017-1.482,0-2.2A4.139,4.139,0,0,1,20.141.091a4.3,4.3,0,0,1,.878-.081c2.77-.006,5.54-.019,8.309,0a4.109,4.109,0,0,1,4.158,3.456,16.227,16.227,0,0,1,.07,2.207c0,.179,0,.357,0,.624h.6q5.089,0,10.178,0a5.75,5.75,0,0,1,6.017,6.033c0,1.36-.011,2.721.008,4.081a.51.51,0,0,1-.408.595q-12.042,4-24.083,8a2.261,2.261,0,0,1-1.328.016Q12.326,20.991.132,16.91A1.073,1.073,0,0,1,0,16.845V11.338M21,6.261h8.35V4.23H21Z" transform="translate(0 0)" fill="#e5bc62"/>
      </g>
    </g>
  </g>
</svg>
